<?xml version="1.0" encoding="utf-8"?>
<svg version="1.1" id="Слой_1" xmlns="http://www.w3.org/2000/svg" xmlns:xlink="http://www.w3.org/1999/xlink" x="0px" y="0px"
	 width="567.083px" height="568.747px" viewBox="0 0 567.083 568.747" enable-background="new 0 0 567.083 568.747"
	 xml:space="preserve">
<path fill="#42AB34" d="M562.391,274.889c4.392,4.392,4.392,11.514,0,15.907L290.795,562.391c-4.392,4.392-11.514,4.392-15.906,0
	L3.295,290.796c-4.393-4.393-4.393-11.514,0-15.907L274.889,3.294c4.393-4.393,11.515-4.393,15.906,0L562.391,274.889z"/>
<linearGradient id="SVGID_1_" gradientUnits="userSpaceOnUse" x1="155.2002" y1="462.6855" x2="330.3773" y2="253.9177">
	<stop  offset="0.2737" style="stop-color:#42AB34"/>
	<stop  offset="1" style="stop-color:#079038"/>
</linearGradient>
<path fill="url(#SVGID_1_)" d="M42.44,330.253l234.668,234.668c4.392,4.391,11.514,4.391,15.906,0l43.427-43.428l97.685-120.536
	L195.063,140.375L42.44,330.253z"/>
<path fill="#FFFFFF" stroke="#184F25" stroke-width="2" stroke-miterlimit="10" d="M134.378,400.979
	c0-99.652,66.883-180.436,149.389-180.436c82.505,0,149.389,80.784,149.389,180.436"/>
<circle fill="#FFFFFF" stroke="#184F25" stroke-width="2" stroke-miterlimit="10" cx="283.768" cy="178.904" r="95.697"/>
</svg>
